<svg xmlns="http://www.w3.org/2000/svg" viewBox="0 0 1200 560" fill="none" stroke="#000" stroke-linecap="round" stroke-linejoin="round">
  <path d="M28 126h276l52 52h218l66-66h532"/>
  <path d="M76 244h226l56-56h188l76 76h550"/>
  <path d="M12 354h322l64 64h204l58-58h500"/>
  <path d="M168 482h178l78-78h246l62 62h438"/>
  <g stroke-width="2">
    <circle cx="304" cy="126" r="5"/><circle cx="356" cy="178" r="4"/><circle cx="574" cy="178" r="5"/><circle cx="640" cy="112" r="4"/>
    <circle cx="302" cy="244" r="4"/><circle cx="358" cy="188" r="5"/><circle cx="546" cy="188" r="4"/><circle cx="622" cy="264" r="5"/>
    <circle cx="334" cy="354" r="5"/><circle cx="398" cy="418" r="4"/><circle cx="602" cy="418" r="5"/><circle cx="660" cy="360" r="4"/>
    <circle cx="346" cy="482" r="4"/><circle cx="424" cy="404" r="5"/><circle cx="670" cy="404" r="4"/><circle cx="732" cy="466" r="5"/>
  </g>
  <g stroke-width="1.5">
    <path d="M108 116v20m-10-10h20M1084 102v20m-10-10h20M100 344v20m-10-10h20M1080 456v20m-10-10h20"/>
  </g>
</svg>
